# xmcd CD database file
#
# Track frame offsets:
#	150
#	25715
#	43075
#	54752
#	76914
#	92451
#	107791
#	129745
#	147899
#	163746
#	181594
#	198144
#
# Disc length: 2907 seconds
#
# Revision: 0
# Processed by: cddbd v1.5.2PL0 Copyright (c) Steve Scherf et al.
# Submitted via: CDex 1.70beta2
#
DISCID=8d0b590c
DTITLE=Manière des Bohémiens - La Pompe
DYEAR=2015
DGENRE=Jazz
TTITLE0=Latcho Drom
TTITLE1=Limehouse Blues
TTITLE2=Tico Tico
TTITLE3=Lullaby of Birdland
TTITLE4=Place de Brouckere
TTITLE5=All of Me
TTITLE6=It Don't Mean a Thing
TTITLE7=Porto Cabello
TTITLE8=Honeysuckle Rose
TTITLE9=Artillerie Lourde
TTITLE10=Brazil (Aquarela Do Brazil)
TTITLE11=I Got Rhythm 
EXTD=YEAR: 2015
EXTT0=
EXTT1=
EXTT2=
EXTT3=
EXTT4=
EXTT5=
EXTT6=
EXTT7=
EXTT8=
EXTT9=
EXTT10=
EXTT11=
PLAYORDER=
